<svg id="Layer_1" data-name="Layer 1" xmlns="http://www.w3.org/2000/svg" viewBox="0 0 376.92 363.22">
  <defs>
    <style>
      .cls-1 {
        fill: #8ec266;
      }

      .cls-2 {
        fill: #fbee74;
      }

      .cls-3 {
        fill: #7dcef3;
      }

      .cls-4 {
        fill: #f18eb0;
      }
    </style>
  </defs>
  <g>
    <ellipse class="cls-1" cx="24.8" cy="331.4" rx="6.49" ry="5.33"/>
    <ellipse class="cls-1" cx="28.96" cy="338.49" rx="6.49" ry="5.33"/>
    <ellipse class="cls-1" cx="31.28" cy="325.41" rx="6.49" ry="5.33"/>
    <ellipse class="cls-1" cx="39.99" cy="329.32" rx="6.49" ry="5.33"/>
    <ellipse class="cls-1" cx="39" cy="337.7" rx="6.49" ry="5.33"/>
    <ellipse class="cls-2" cx="33.51" cy="332.38" rx="3.24" ry="2.66"/>
  </g>
  <g>
    <ellipse class="cls-1" cx="166.67" cy="72.33" rx="6.49" ry="5.33" transform="translate(8.74 162.16) rotate(-53.09)"/>
    <ellipse class="cls-1" cx="174.84" cy="73.26" rx="6.49" ry="5.33" transform="translate(11.26 169.06) rotate(-53.09)"/>
    <ellipse class="cls-1" cx="165.78" cy="63.55" rx="6.49" ry="5.33" transform="translate(15.41 157.94) rotate(-53.09)"/>
    <ellipse class="cls-1" cx="174.14" cy="58.93" rx="6.49" ry="5.33" transform="matrix(0.6, -0.8, 0.8, 0.6, 22.44, 162.78)"/>
    <ellipse class="cls-1" cx="180.24" cy="64.76" rx="6.49" ry="5.33" transform="translate(20.22 169.99) rotate(-53.09)"/>
    <ellipse class="cls-2" cx="172.68" cy="65.95" rx="3.24" ry="2.66" transform="translate(16.25 164.42) rotate(-53.09)"/>
  </g>
  <g>
    <ellipse class="cls-1" cx="131.86" cy="22.61" rx="6.49" ry="5.33"/>
    <ellipse class="cls-1" cx="136.02" cy="29.7" rx="6.49" ry="5.33"/>
    <ellipse class="cls-1" cx="138.35" cy="16.63" rx="6.49" ry="5.33"/>
    <ellipse class="cls-1" cx="147.06" cy="20.53" rx="6.49" ry="5.33"/>
    <ellipse class="cls-1" cx="146.06" cy="28.92" rx="6.49" ry="5.33"/>
    <ellipse class="cls-2" cx="140.57" cy="23.59" rx="3.24" ry="2.66"/>
  </g>
  <g>
    <ellipse class="cls-1" cx="106.47" cy="114.94" rx="6.49" ry="5.33"/>
    <ellipse class="cls-1" cx="110.64" cy="122.03" rx="6.49" ry="5.33"/>
    <ellipse class="cls-1" cx="112.96" cy="108.95" rx="6.49" ry="5.33"/>
    <ellipse class="cls-1" cx="121.67" cy="112.86" rx="6.49" ry="5.33"/>
    <ellipse class="cls-1" cx="120.68" cy="121.24" rx="6.49" ry="5.33"/>
    <ellipse class="cls-2" cx="115.19" cy="115.92" rx="3.24" ry="2.66"/>
  </g>
  <g>
    <ellipse class="cls-1" cx="143.81" cy="151.98" rx="6.49" ry="5.33"/>
    <ellipse class="cls-1" cx="147.98" cy="159.08" rx="6.49" ry="5.33"/>
    <ellipse class="cls-1" cx="150.3" cy="146" rx="6.49" ry="5.33"/>
    <ellipse class="cls-1" cx="159.01" cy="149.91" rx="6.49" ry="5.33"/>
    <ellipse class="cls-1" cx="158.02" cy="158.29" rx="6.49" ry="5.33"/>
    <ellipse class="cls-2" cx="152.53" cy="152.96" rx="3.24" ry="2.66"/>
  </g>
  <g>
    <ellipse class="cls-1" cx="145.94" cy="204.92" rx="6.49" ry="5.33"/>
    <ellipse class="cls-1" cx="150.11" cy="212.02" rx="6.49" ry="5.33"/>
    <ellipse class="cls-1" cx="152.43" cy="198.94" rx="6.49" ry="5.33"/>
    <ellipse class="cls-1" cx="161.14" cy="202.85" rx="6.49" ry="5.33"/>
    <ellipse class="cls-1" cx="160.15" cy="211.23" rx="6.49" ry="5.33"/>
    <ellipse class="cls-2" cx="154.66" cy="205.9" rx="3.24" ry="2.66"/>
  </g>
  <g>
    <ellipse class="cls-1" cx="55.32" cy="241.64" rx="6.49" ry="5.33"/>
    <ellipse class="cls-1" cx="59.48" cy="248.74" rx="6.49" ry="5.33"/>
    <ellipse class="cls-1" cx="61.8" cy="235.66" rx="6.49" ry="5.33"/>
    <ellipse class="cls-1" cx="70.52" cy="239.57" rx="6.49" ry="5.33"/>
    <ellipse class="cls-1" cx="69.52" cy="247.95" rx="6.49" ry="5.33"/>
    <ellipse class="cls-2" cx="64.03" cy="242.62" rx="3.24" ry="2.66"/>
  </g>
  <g>
    <ellipse class="cls-1" cx="106.59" cy="301.55" rx="6.49" ry="5.33"/>
    <ellipse class="cls-1" cx="110.75" cy="308.64" rx="6.49" ry="5.33"/>
    <ellipse class="cls-1" cx="113.08" cy="295.57" rx="6.49" ry="5.33"/>
    <ellipse class="cls-1" cx="121.79" cy="299.47" rx="6.49" ry="5.33"/>
    <ellipse class="cls-1" cx="120.79" cy="307.86" rx="6.49" ry="5.33"/>
    <ellipse class="cls-2" cx="115.3" cy="302.53" rx="3.24" ry="2.66"/>
  </g>
  <g>
    <ellipse class="cls-1" cx="263.04" cy="35.03" rx="6.49" ry="5.33"/>
    <ellipse class="cls-1" cx="267.2" cy="42.13" rx="6.49" ry="5.33"/>
    <ellipse class="cls-1" cx="269.52" cy="29.05" rx="6.49" ry="5.33"/>
    <ellipse class="cls-1" cx="278.23" cy="32.96" rx="6.49" ry="5.33"/>
    <ellipse class="cls-1" cx="277.24" cy="41.34" rx="6.49" ry="5.33"/>
    <ellipse class="cls-2" cx="271.75" cy="36.01" rx="3.24" ry="2.66"/>
  </g>
  <g>
    <ellipse class="cls-1" cx="293.54" cy="101.54" rx="5.33" ry="6.49" transform="translate(21.41 251.26) rotate(-47.9)"/>
    <ellipse class="cls-1" cx="291.87" cy="109.59" rx="5.33" ry="6.49" transform="translate(14.88 252.68) rotate(-47.9)"/>
    <ellipse class="cls-1" cx="302.36" cy="101.45" rx="5.33" ry="6.49" transform="translate(24.38 257.78) rotate(-47.9)"/>
    <ellipse class="cls-1" cx="306.2" cy="110.19" rx="5.33" ry="6.49" transform="translate(19.16 263.51) rotate(-47.9)"/>
    <ellipse class="cls-1" cx="299.85" cy="115.74" rx="5.33" ry="6.49" transform="translate(12.95 260.62) rotate(-47.9)"/>
    <ellipse class="cls-2" cx="299.34" cy="108.1" rx="2.66" ry="3.24" transform="translate(18.45 257.74) rotate(-47.9)"/>
  </g>
  <g>
    <ellipse class="cls-1" cx="337.62" cy="120.26" rx="6.49" ry="5.33"/>
    <ellipse class="cls-1" cx="341.78" cy="127.36" rx="6.49" ry="5.33"/>
    <ellipse class="cls-1" cx="344.1" cy="114.28" rx="6.49" ry="5.33"/>
    <ellipse class="cls-1" cx="352.81" cy="118.19" rx="6.49" ry="5.33"/>
    <ellipse class="cls-1" cx="351.82" cy="126.57" rx="6.49" ry="5.33"/>
    <ellipse class="cls-2" cx="346.33" cy="121.24" rx="3.24" ry="2.66"/>
  </g>
  <g>
    <ellipse class="cls-1" cx="318.86" cy="173.08" rx="6.49" ry="5.33"/>
    <ellipse class="cls-1" cx="323.02" cy="180.18" rx="6.49" ry="5.33"/>
    <ellipse class="cls-1" cx="325.34" cy="167.1" rx="6.49" ry="5.33"/>
    <ellipse class="cls-1" cx="334.05" cy="171.01" rx="6.49" ry="5.33"/>
    <ellipse class="cls-1" cx="333.06" cy="179.39" rx="6.49" ry="5.33"/>
    <ellipse class="cls-2" cx="327.57" cy="174.06" rx="3.24" ry="2.66"/>
  </g>
  <g>
    <ellipse class="cls-1" cx="330.02" cy="38.12" rx="6.49" ry="5.33"/>
    <ellipse class="cls-1" cx="334.18" cy="45.21" rx="6.49" ry="5.33"/>
    <ellipse class="cls-1" cx="336.5" cy="32.14" rx="6.49" ry="5.33"/>
    <ellipse class="cls-1" cx="345.22" cy="36.04" rx="6.49" ry="5.33"/>
    <ellipse class="cls-1" cx="344.22" cy="44.43" rx="6.49" ry="5.33"/>
    <ellipse class="cls-2" cx="338.73" cy="39.1" rx="3.24" ry="2.66"/>
  </g>
  <g>
    <ellipse class="cls-1" cx="312.89" cy="309.51" rx="6.49" ry="5.33"/>
    <ellipse class="cls-1" cx="317.05" cy="316.6" rx="6.49" ry="5.33"/>
    <ellipse class="cls-1" cx="319.37" cy="303.52" rx="6.49" ry="5.33"/>
    <ellipse class="cls-1" cx="328.08" cy="307.43" rx="6.49" ry="5.33"/>
    <ellipse class="cls-1" cx="327.09" cy="315.81" rx="6.49" ry="5.33"/>
    <ellipse class="cls-2" cx="321.6" cy="310.49" rx="3.24" ry="2.66"/>
  </g>
  <g>
    <ellipse class="cls-1" cx="230.77" cy="93.96" rx="6.49" ry="5.33" transform="translate(-3.63 178.47) rotate(-41.98)"/>
    <ellipse class="cls-1" cx="238.61" cy="96.45" rx="6.49" ry="5.33" transform="translate(-3.28 184.35) rotate(-41.98)"/>
    <ellipse class="cls-1" cx="231.59" cy="85.18" rx="6.49" ry="5.33" transform="translate(2.46 176.76) rotate(-41.98)"/>
    <ellipse class="cls-1" cx="240.68" cy="82.26" rx="6.49" ry="5.33" transform="translate(6.75 182.09) rotate(-41.98)"/>
    <ellipse class="cls-1" cx="245.55" cy="89.15" rx="6.49" ry="5.33" transform="translate(3.38 187.12) rotate(-41.98)"/>
    <ellipse class="cls-2" cx="237.9" cy="88.86" rx="3.24" ry="2.66" transform="translate(1.61 181.93) rotate(-41.98)"/>
  </g>
  <g>
    <ellipse class="cls-1" cx="227.06" cy="166.54" rx="6.49" ry="5.33"/>
    <ellipse class="cls-1" cx="231.23" cy="173.64" rx="6.49" ry="5.33"/>
    <ellipse class="cls-1" cx="233.55" cy="160.56" rx="6.49" ry="5.33"/>
    <ellipse class="cls-1" cx="242.26" cy="164.47" rx="6.49" ry="5.33"/>
    <ellipse class="cls-1" cx="241.27" cy="172.85" rx="6.49" ry="5.33"/>
    <ellipse class="cls-2" cx="235.78" cy="167.52" rx="3.24" ry="2.66"/>
  </g>
  <g>
    <ellipse class="cls-1" cx="288.7" cy="233.69" rx="6.49" ry="5.33"/>
    <ellipse class="cls-1" cx="292.86" cy="240.78" rx="6.49" ry="5.33"/>
    <ellipse class="cls-1" cx="295.19" cy="227.7" rx="6.49" ry="5.33"/>
    <ellipse class="cls-1" cx="303.9" cy="231.61" rx="6.49" ry="5.33"/>
    <ellipse class="cls-1" cx="302.9" cy="239.99" rx="6.49" ry="5.33"/>
    <ellipse class="cls-2" cx="297.41" cy="234.67" rx="3.24" ry="2.66"/>
  </g>
  <g>
    <ellipse class="cls-1" cx="171.63" cy="315.26" rx="6.49" ry="5.33"/>
    <ellipse class="cls-1" cx="175.8" cy="322.35" rx="6.49" ry="5.33"/>
    <ellipse class="cls-1" cx="178.12" cy="309.27" rx="6.49" ry="5.33"/>
    <ellipse class="cls-1" cx="186.83" cy="313.18" rx="6.49" ry="5.33"/>
    <ellipse class="cls-1" cx="185.84" cy="321.56" rx="6.49" ry="5.33"/>
    <ellipse class="cls-2" cx="180.35" cy="316.24" rx="3.24" ry="2.66"/>
  </g>
  <g>
    <ellipse class="cls-3" cx="270.91" cy="55.17" rx="2.37" ry="1.76"/>
    <ellipse class="cls-3" cx="272.43" cy="57.51" rx="2.37" ry="1.76"/>
    <ellipse class="cls-3" cx="273.28" cy="53.19" rx="2.37" ry="1.76"/>
    <ellipse class="cls-3" cx="276.46" cy="54.48" rx="2.37" ry="1.76"/>
    <ellipse class="cls-3" cx="276.09" cy="57.25" rx="2.37" ry="1.76"/>
    <ellipse class="cls-2" cx="274.09" cy="55.49" rx="1.18" ry="0.88"/>
  </g>
  <g>
    <ellipse class="cls-3" cx="234.94" cy="132.5" rx="2.37" ry="1.76"/>
    <ellipse class="cls-3" cx="236.46" cy="134.85" rx="2.37" ry="1.76"/>
    <ellipse class="cls-3" cx="237.31" cy="130.52" rx="2.37" ry="1.76"/>
    <ellipse class="cls-3" cx="240.48" cy="131.82" rx="2.37" ry="1.76"/>
    <ellipse class="cls-3" cx="240.12" cy="134.59" rx="2.37" ry="1.76"/>
    <ellipse class="cls-2" cx="238.12" cy="132.83" rx="1.18" ry="0.88"/>
  </g>
  <g>
    <ellipse class="cls-3" cx="226.32" cy="307.25" rx="2.37" ry="1.76"/>
    <ellipse class="cls-3" cx="227.84" cy="309.59" rx="2.37" ry="1.76"/>
    <ellipse class="cls-3" cx="228.69" cy="305.27" rx="2.37" ry="1.76"/>
    <ellipse class="cls-3" cx="231.87" cy="306.56" rx="2.37" ry="1.76"/>
    <ellipse class="cls-3" cx="231.51" cy="309.33" rx="2.37" ry="1.76"/>
    <ellipse class="cls-2" cx="229.5" cy="307.57" rx="1.18" ry="0.88"/>
  </g>
  <g>
    <ellipse class="cls-3" cx="230.78" cy="346.94" rx="2.37" ry="1.76"/>
    <ellipse class="cls-3" cx="232.3" cy="349.28" rx="2.37" ry="1.76"/>
    <ellipse class="cls-3" cx="233.14" cy="344.96" rx="2.37" ry="1.76"/>
    <ellipse class="cls-3" cx="236.32" cy="346.25" rx="2.37" ry="1.76"/>
    <ellipse class="cls-3" cx="235.96" cy="349.02" rx="2.37" ry="1.76"/>
    <ellipse class="cls-2" cx="233.96" cy="347.26" rx="1.18" ry="0.88"/>
  </g>
  <g>
    <ellipse class="cls-3" cx="285.63" cy="334.03" rx="2.37" ry="1.76"/>
    <ellipse class="cls-3" cx="287.15" cy="336.38" rx="2.37" ry="1.76"/>
    <ellipse class="cls-3" cx="287.99" cy="332.05" rx="2.37" ry="1.76"/>
    <ellipse class="cls-3" cx="291.17" cy="333.35" rx="2.37" ry="1.76"/>
    <ellipse class="cls-3" cx="290.81" cy="336.12" rx="2.37" ry="1.76"/>
    <ellipse class="cls-2" cx="288.81" cy="334.36" rx="1.18" ry="0.88"/>
  </g>
  <g>
    <ellipse class="cls-3" cx="262.11" cy="204.08" rx="2.37" ry="1.76"/>
    <ellipse class="cls-3" cx="263.63" cy="206.43" rx="2.37" ry="1.76"/>
    <ellipse class="cls-3" cx="264.47" cy="202.1" rx="2.37" ry="1.76"/>
    <ellipse class="cls-3" cx="267.65" cy="203.4" rx="2.37" ry="1.76"/>
    <ellipse class="cls-3" cx="267.29" cy="206.17" rx="2.37" ry="1.76"/>
    <ellipse class="cls-2" cx="265.28" cy="204.41" rx="1.18" ry="0.88"/>
  </g>
  <g>
    <ellipse class="cls-3" cx="186.02" cy="181.42" rx="2.37" ry="1.76"/>
    <ellipse class="cls-3" cx="187.54" cy="183.77" rx="2.37" ry="1.76"/>
    <ellipse class="cls-3" cx="188.38" cy="179.45" rx="2.37" ry="1.76"/>
    <ellipse class="cls-3" cx="191.56" cy="180.74" rx="2.37" ry="1.76"/>
    <ellipse class="cls-3" cx="191.2" cy="183.51" rx="2.37" ry="1.76"/>
    <ellipse class="cls-2" cx="189.2" cy="181.75" rx="1.18" ry="0.88"/>
  </g>
  <g>
    <ellipse class="cls-3" cx="106.73" cy="148.25" rx="2.37" ry="1.76"/>
    <ellipse class="cls-3" cx="108.25" cy="150.6" rx="2.37" ry="1.76"/>
    <ellipse class="cls-3" cx="109.1" cy="146.27" rx="2.37" ry="1.76"/>
    <ellipse class="cls-3" cx="112.27" cy="147.57" rx="2.37" ry="1.76"/>
    <ellipse class="cls-3" cx="111.91" cy="150.34" rx="2.37" ry="1.76"/>
    <ellipse class="cls-2" cx="109.91" cy="148.58" rx="1.18" ry="0.88"/>
  </g>
  <g>
    <ellipse class="cls-3" cx="180.88" cy="273.9" rx="2.37" ry="1.76"/>
    <ellipse class="cls-3" cx="182.4" cy="276.25" rx="2.37" ry="1.76"/>
    <ellipse class="cls-3" cx="183.24" cy="271.92" rx="2.37" ry="1.76"/>
    <ellipse class="cls-3" cx="186.42" cy="273.21" rx="2.37" ry="1.76"/>
    <ellipse class="cls-3" cx="186.06" cy="275.99" rx="2.37" ry="1.76"/>
    <ellipse class="cls-2" cx="184.06" cy="274.22" rx="1.18" ry="0.88"/>
  </g>
  <g>
    <ellipse class="cls-3" cx="78.08" cy="211.83" rx="2.37" ry="1.76"/>
    <ellipse class="cls-3" cx="79.6" cy="214.18" rx="2.37" ry="1.76"/>
    <ellipse class="cls-3" cx="80.45" cy="209.85" rx="2.37" ry="1.76"/>
    <ellipse class="cls-3" cx="83.63" cy="211.15" rx="2.37" ry="1.76"/>
    <ellipse class="cls-3" cx="83.26" cy="213.92" rx="2.37" ry="1.76"/>
    <ellipse class="cls-2" cx="81.26" cy="212.16" rx="1.18" ry="0.88"/>
  </g>
  <g>
    <ellipse class="cls-3" cx="106.32" cy="246.27" rx="2.37" ry="1.76"/>
    <ellipse class="cls-3" cx="107.84" cy="248.62" rx="2.37" ry="1.76"/>
    <ellipse class="cls-3" cx="108.69" cy="244.29" rx="2.37" ry="1.76"/>
    <ellipse class="cls-3" cx="111.87" cy="245.58" rx="2.37" ry="1.76"/>
    <ellipse class="cls-3" cx="111.5" cy="248.36" rx="2.37" ry="1.76"/>
    <ellipse class="cls-2" cx="109.5" cy="246.59" rx="1.18" ry="0.88"/>
  </g>
  <g>
    <ellipse class="cls-3" cx="67.97" cy="284.49" rx="2.37" ry="1.76"/>
    <ellipse class="cls-3" cx="69.49" cy="286.84" rx="2.37" ry="1.76"/>
    <ellipse class="cls-3" cx="70.34" cy="282.51" rx="2.37" ry="1.76"/>
    <ellipse class="cls-3" cx="73.51" cy="283.8" rx="2.37" ry="1.76"/>
    <ellipse class="cls-3" cx="73.15" cy="286.58" rx="2.37" ry="1.76"/>
    <ellipse class="cls-2" cx="71.15" cy="284.81" rx="1.18" ry="0.88"/>
  </g>
  <g>
    <ellipse class="cls-3" cx="63.19" cy="327.5" rx="2.37" ry="1.76"/>
    <ellipse class="cls-3" cx="64.71" cy="329.84" rx="2.37" ry="1.76"/>
    <ellipse class="cls-3" cx="65.56" cy="325.52" rx="2.37" ry="1.76"/>
    <ellipse class="cls-3" cx="68.74" cy="326.81" rx="2.37" ry="1.76"/>
    <ellipse class="cls-3" cx="68.38" cy="329.58" rx="2.37" ry="1.76"/>
    <ellipse class="cls-2" cx="66.37" cy="327.82" rx="1.18" ry="0.88"/>
  </g>
  <g>
    <ellipse class="cls-3" cx="21.55" cy="207.54" rx="2.37" ry="1.76"/>
    <ellipse class="cls-3" cx="23.06" cy="209.88" rx="2.37" ry="1.76"/>
    <ellipse class="cls-3" cx="23.91" cy="205.56" rx="2.37" ry="1.76"/>
    <ellipse class="cls-3" cx="27.09" cy="206.85" rx="2.37" ry="1.76"/>
    <ellipse class="cls-3" cx="26.73" cy="209.62" rx="2.37" ry="1.76"/>
    <ellipse class="cls-2" cx="24.72" cy="207.86" rx="1.18" ry="0.88"/>
  </g>
  <g>
    <ellipse class="cls-3" cx="301.71" cy="151.34" rx="2.37" ry="1.76"/>
    <ellipse class="cls-3" cx="303.23" cy="153.68" rx="2.37" ry="1.76"/>
    <ellipse class="cls-3" cx="304.08" cy="149.36" rx="2.37" ry="1.76"/>
    <ellipse class="cls-3" cx="307.26" cy="150.65" rx="2.37" ry="1.76"/>
    <ellipse class="cls-3" cx="306.89" cy="153.42" rx="2.37" ry="1.76"/>
    <ellipse class="cls-2" cx="304.89" cy="151.66" rx="1.18" ry="0.88"/>
  </g>
  <g>
    <ellipse class="cls-3" cx="175.35" cy="105.19" rx="2.37" ry="1.76"/>
    <ellipse class="cls-3" cx="176.87" cy="107.53" rx="2.37" ry="1.76"/>
    <ellipse class="cls-3" cx="177.71" cy="103.21" rx="2.37" ry="1.76"/>
    <ellipse class="cls-3" cx="180.89" cy="104.5" rx="2.37" ry="1.76"/>
    <ellipse class="cls-3" cx="180.53" cy="107.27" rx="2.37" ry="1.76"/>
    <ellipse class="cls-2" cx="178.53" cy="105.51" rx="1.18" ry="0.88"/>
  </g>
  <g>
    <ellipse class="cls-3" cx="57.37" cy="101.26" rx="2.37" ry="1.76"/>
    <ellipse class="cls-3" cx="58.89" cy="103.61" rx="2.37" ry="1.76"/>
    <ellipse class="cls-3" cx="59.74" cy="99.28" rx="2.37" ry="1.76"/>
    <ellipse class="cls-3" cx="62.92" cy="100.58" rx="2.37" ry="1.76"/>
    <ellipse class="cls-3" cx="62.55" cy="103.35" rx="2.37" ry="1.76"/>
    <ellipse class="cls-2" cx="60.55" cy="101.59" rx="1.18" ry="0.88"/>
  </g>
  <g>
    <ellipse class="cls-3" cx="87.81" cy="29.52" rx="2.37" ry="1.76"/>
    <ellipse class="cls-3" cx="89.33" cy="31.87" rx="2.37" ry="1.76"/>
    <ellipse class="cls-3" cx="90.18" cy="27.54" rx="2.37" ry="1.76"/>
    <ellipse class="cls-3" cx="93.35" cy="28.83" rx="2.37" ry="1.76"/>
    <ellipse class="cls-3" cx="92.99" cy="31.6" rx="2.37" ry="1.76"/>
    <ellipse class="cls-2" cx="90.99" cy="29.84" rx="1.18" ry="0.88"/>
  </g>
  <g>
    <ellipse class="cls-1" cx="231.42" cy="274.08" rx="6.49" ry="5.33"/>
    <ellipse class="cls-1" cx="235.58" cy="281.18" rx="6.49" ry="5.33"/>
    <ellipse class="cls-1" cx="237.91" cy="268.1" rx="6.49" ry="5.33"/>
    <ellipse class="cls-1" cx="246.62" cy="272.01" rx="6.49" ry="5.33"/>
    <ellipse class="cls-1" cx="245.62" cy="280.39" rx="6.49" ry="5.33"/>
    <ellipse class="cls-2" cx="240.13" cy="275.06" rx="3.24" ry="2.66"/>
  </g>
  <g>
    <ellipse class="cls-4" cx="273.1" cy="296" rx="3.92" ry="3.06"/>
    <ellipse class="cls-4" cx="275.61" cy="300.08" rx="3.92" ry="3.06"/>
    <ellipse class="cls-4" cx="277.01" cy="292.56" rx="3.92" ry="3.06"/>
    <ellipse class="cls-4" cx="282.27" cy="294.81" rx="3.92" ry="3.06"/>
    <ellipse class="cls-4" cx="281.67" cy="299.63" rx="3.92" ry="3.06"/>
    <ellipse class="cls-2" cx="278.36" cy="296.56" rx="1.96" ry="1.53"/>
  </g>
  <g>
    <ellipse class="cls-4" cx="269.14" cy="164.54" rx="3.92" ry="3.06"/>
    <ellipse class="cls-4" cx="271.65" cy="168.62" rx="3.92" ry="3.06"/>
    <ellipse class="cls-4" cx="273.06" cy="161.1" rx="3.92" ry="3.06"/>
    <ellipse class="cls-4" cx="278.32" cy="163.35" rx="3.92" ry="3.06"/>
    <ellipse class="cls-4" cx="277.72" cy="168.17" rx="3.92" ry="3.06"/>
    <ellipse class="cls-2" cx="274.4" cy="165.1" rx="1.96" ry="1.53"/>
  </g>
  <g>
    <ellipse class="cls-4" cx="324.91" cy="76.65" rx="3.92" ry="3.06"/>
    <ellipse class="cls-4" cx="327.43" cy="80.73" rx="3.92" ry="3.06"/>
    <ellipse class="cls-4" cx="328.83" cy="73.21" rx="3.92" ry="3.06"/>
    <ellipse class="cls-4" cx="334.09" cy="75.46" rx="3.92" ry="3.06"/>
    <ellipse class="cls-4" cx="333.49" cy="80.28" rx="3.92" ry="3.06"/>
    <ellipse class="cls-2" cx="330.18" cy="77.21" rx="1.96" ry="1.53"/>
  </g>
  <g>
    <ellipse class="cls-4" cx="205.04" cy="27.44" rx="3.92" ry="3.06"/>
    <ellipse class="cls-4" cx="207.55" cy="31.52" rx="3.92" ry="3.06"/>
    <ellipse class="cls-4" cx="208.95" cy="24" rx="3.92" ry="3.06"/>
    <ellipse class="cls-4" cx="214.22" cy="26.24" rx="3.92" ry="3.06"/>
    <ellipse class="cls-4" cx="213.62" cy="31.06" rx="3.92" ry="3.06"/>
    <ellipse class="cls-2" cx="210.3" cy="28" rx="1.96" ry="1.53"/>
  </g>
  <g>
    <ellipse class="cls-4" cx="202.96" cy="141.29" rx="3.92" ry="3.06"/>
    <ellipse class="cls-4" cx="205.48" cy="145.37" rx="3.92" ry="3.06"/>
    <ellipse class="cls-4" cx="206.88" cy="137.85" rx="3.92" ry="3.06"/>
    <ellipse class="cls-4" cx="212.14" cy="140.1" rx="3.92" ry="3.06"/>
    <ellipse class="cls-4" cx="211.54" cy="144.92" rx="3.92" ry="3.06"/>
    <ellipse class="cls-2" cx="208.22" cy="141.86" rx="1.96" ry="1.53"/>
  </g>
  <g>
    <ellipse class="cls-4" cx="21.02" cy="127.04" rx="3.92" ry="3.06"/>
    <ellipse class="cls-4" cx="23.53" cy="131.12" rx="3.92" ry="3.06"/>
    <ellipse class="cls-4" cx="24.93" cy="123.6" rx="3.92" ry="3.06"/>
    <ellipse class="cls-4" cx="30.19" cy="125.85" rx="3.92" ry="3.06"/>
    <ellipse class="cls-4" cx="29.59" cy="130.67" rx="3.92" ry="3.06"/>
    <ellipse class="cls-2" cx="26.28" cy="127.6" rx="1.96" ry="1.53"/>
  </g>
  <g>
    <ellipse class="cls-4" cx="129.08" cy="70.95" rx="3.92" ry="3.06"/>
    <ellipse class="cls-4" cx="131.6" cy="75.03" rx="3.92" ry="3.06"/>
    <ellipse class="cls-4" cx="133" cy="67.51" rx="3.92" ry="3.06"/>
    <ellipse class="cls-4" cx="138.26" cy="69.76" rx="3.92" ry="3.06"/>
    <ellipse class="cls-4" cx="137.66" cy="74.58" rx="3.92" ry="3.06"/>
    <ellipse class="cls-2" cx="134.35" cy="71.51" rx="1.96" ry="1.53"/>
  </g>
  <g>
    <ellipse class="cls-4" cx="25.6" cy="283.66" rx="3.92" ry="3.06"/>
    <ellipse class="cls-4" cx="28.12" cy="287.74" rx="3.92" ry="3.06"/>
    <ellipse class="cls-4" cx="29.52" cy="280.22" rx="3.92" ry="3.06"/>
    <ellipse class="cls-4" cx="34.78" cy="282.46" rx="3.92" ry="3.06"/>
    <ellipse class="cls-4" cx="34.18" cy="287.29" rx="3.92" ry="3.06"/>
    <ellipse class="cls-2" cx="30.87" cy="284.22" rx="1.96" ry="1.53"/>
  </g>
  <g>
    <ellipse class="cls-4" cx="131.43" cy="266.36" rx="3.92" ry="3.06"/>
    <ellipse class="cls-4" cx="133.95" cy="270.44" rx="3.92" ry="3.06"/>
    <ellipse class="cls-4" cx="135.35" cy="262.92" rx="3.92" ry="3.06"/>
    <ellipse class="cls-4" cx="140.61" cy="265.17" rx="3.92" ry="3.06"/>
    <ellipse class="cls-4" cx="140.01" cy="269.99" rx="3.92" ry="3.06"/>
    <ellipse class="cls-2" cx="136.7" cy="266.93" rx="1.96" ry="1.53"/>
  </g>
  <g>
    <ellipse class="cls-4" cx="99.68" cy="340.67" rx="3.92" ry="3.06"/>
    <ellipse class="cls-4" cx="102.19" cy="344.75" rx="3.92" ry="3.06"/>
    <ellipse class="cls-4" cx="103.6" cy="337.23" rx="3.92" ry="3.06"/>
    <ellipse class="cls-4" cx="108.86" cy="339.48" rx="3.92" ry="3.06"/>
    <ellipse class="cls-4" cx="108.26" cy="344.3" rx="3.92" ry="3.06"/>
    <ellipse class="cls-2" cx="104.94" cy="341.24" rx="1.96" ry="1.53"/>
  </g>
  <g>
    <ellipse class="cls-4" cx="80.85" cy="166.09" rx="3.92" ry="3.06"/>
    <ellipse class="cls-4" cx="83.37" cy="170.17" rx="3.92" ry="3.06"/>
    <ellipse class="cls-4" cx="84.77" cy="162.65" rx="3.92" ry="3.06"/>
    <ellipse class="cls-4" cx="90.03" cy="164.9" rx="3.92" ry="3.06"/>
    <ellipse class="cls-4" cx="89.43" cy="169.72" rx="3.92" ry="3.06"/>
    <ellipse class="cls-2" cx="86.12" cy="166.65" rx="1.96" ry="1.53"/>
  </g>
  <g>
    <ellipse class="cls-4" cx="106.02" cy="218.8" rx="3.92" ry="3.06"/>
    <ellipse class="cls-4" cx="108.54" cy="222.88" rx="3.92" ry="3.06"/>
    <ellipse class="cls-4" cx="109.94" cy="215.36" rx="3.92" ry="3.06"/>
    <ellipse class="cls-4" cx="115.2" cy="217.61" rx="3.92" ry="3.06"/>
    <ellipse class="cls-4" cx="114.6" cy="222.43" rx="3.92" ry="3.06"/>
    <ellipse class="cls-2" cx="111.29" cy="219.36" rx="1.96" ry="1.53"/>
  </g>
  <g>
    <ellipse class="cls-4" cx="341.74" cy="252.96" rx="3.92" ry="3.06"/>
    <ellipse class="cls-4" cx="344.25" cy="257.04" rx="3.92" ry="3.06"/>
    <ellipse class="cls-4" cx="345.66" cy="249.52" rx="3.92" ry="3.06"/>
    <ellipse class="cls-4" cx="350.92" cy="251.77" rx="3.92" ry="3.06"/>
    <ellipse class="cls-4" cx="350.32" cy="256.59" rx="3.92" ry="3.06"/>
    <ellipse class="cls-2" cx="347" cy="253.52" rx="1.96" ry="1.53"/>
  </g>
  <g>
    <ellipse class="cls-4" cx="219.19" cy="217.02" rx="3.92" ry="3.06"/>
    <ellipse class="cls-4" cx="221.7" cy="221.11" rx="3.92" ry="3.06"/>
    <ellipse class="cls-4" cx="223.1" cy="213.58" rx="3.92" ry="3.06"/>
    <ellipse class="cls-4" cx="228.37" cy="215.83" rx="3.92" ry="3.06"/>
    <ellipse class="cls-4" cx="227.77" cy="220.65" rx="3.92" ry="3.06"/>
    <ellipse class="cls-2" cx="224.45" cy="217.59" rx="1.96" ry="1.53"/>
  </g>
  <g>
    <ellipse class="cls-4" cx="51.45" cy="59.59" rx="3.92" ry="3.06"/>
    <ellipse class="cls-4" cx="53.97" cy="63.67" rx="3.92" ry="3.06"/>
    <ellipse class="cls-4" cx="55.37" cy="56.15" rx="3.92" ry="3.06"/>
    <ellipse class="cls-4" cx="60.63" cy="58.4" rx="3.92" ry="3.06"/>
    <ellipse class="cls-4" cx="60.03" cy="63.22" rx="3.92" ry="3.06"/>
    <ellipse class="cls-2" cx="56.72" cy="60.16" rx="1.96" ry="1.53"/>
  </g>
  <g>
    <ellipse class="cls-4" cx="258.45" cy="329.97" rx="3.92" ry="3.06"/>
    <ellipse class="cls-4" cx="260.96" cy="334.05" rx="3.92" ry="3.06"/>
    <ellipse class="cls-4" cx="262.36" cy="326.53" rx="3.92" ry="3.06"/>
    <ellipse class="cls-4" cx="267.63" cy="328.78" rx="3.92" ry="3.06"/>
    <ellipse class="cls-4" cx="267.03" cy="333.6" rx="3.92" ry="3.06"/>
    <ellipse class="cls-2" cx="263.71" cy="330.53" rx="1.96" ry="1.53"/>
  </g>
  <g>
    <ellipse class="cls-4" cx="188.56" cy="339.98" rx="3.92" ry="3.06"/>
    <ellipse class="cls-4" cx="191.08" cy="344.06" rx="3.92" ry="3.06"/>
    <ellipse class="cls-4" cx="192.48" cy="336.54" rx="3.92" ry="3.06"/>
    <ellipse class="cls-4" cx="197.74" cy="338.78" rx="3.92" ry="3.06"/>
    <ellipse class="cls-4" cx="197.14" cy="343.6" rx="3.92" ry="3.06"/>
    <ellipse class="cls-2" cx="193.82" cy="340.54" rx="1.96" ry="1.53"/>
  </g>
  <g>
    <ellipse class="cls-1" cx="84.36" cy="71.58" rx="6.49" ry="5.33" transform="translate(-18.5 30.84) rotate(-18.71)"/>
    <ellipse class="cls-1" cx="90.58" cy="76.97" rx="6.49" ry="5.33" transform="translate(-19.9 33.12) rotate(-18.71)"/>
    <ellipse class="cls-1" cx="88.59" cy="63.84" rx="6.49" ry="5.33" transform="translate(-15.79 31.79) rotate(-18.71)"/>
    <ellipse class="cls-1" cx="98.09" cy="64.74" rx="6.49" ry="5.33" transform="translate(-15.58 34.88) rotate(-18.71)"/>
    <ellipse class="cls-1" cx="99.84" cy="73" rx="6.49" ry="5.33" transform="matrix(0.95, -0.32, 0.32, 0.95, -18.14, 35.88)"/>
    <ellipse class="cls-2" cx="92.93" cy="69.72" rx="3.24" ry="2.66" transform="translate(-17.45 33.49) rotate(-18.71)"/>
  </g>
  <g>
    <ellipse class="cls-1" cx="22.79" cy="36.94" rx="6.49" ry="5.33" transform="translate(-10.64 9.26) rotate(-18.71)"/>
    <ellipse class="cls-1" cx="29.01" cy="42.33" rx="6.49" ry="5.33" transform="translate(-12.04 11.54) rotate(-18.71)"/>
    <ellipse class="cls-1" cx="27.02" cy="29.19" rx="6.49" ry="5.33" transform="translate(-7.94 10.21) rotate(-18.71)"/>
    <ellipse class="cls-1" cx="36.52" cy="30.1" rx="6.49" ry="5.33" transform="translate(-7.73 13.3) rotate(-18.71)"/>
    <ellipse class="cls-1" cx="38.27" cy="38.36" rx="6.49" ry="5.33" transform="translate(-10.28 14.3) rotate(-18.71)"/>
    <ellipse class="cls-2" cx="31.36" cy="35.07" rx="3.24" ry="2.66" transform="translate(-9.59 11.91) rotate(-18.71)"/>
  </g>
  <g>
    <ellipse class="cls-1" cx="24.47" cy="167.6" rx="5.33" ry="6.49" transform="translate(-139.75 126.14) rotate(-67.52)"/>
    <ellipse class="cls-1" cx="25.6" cy="175.75" rx="5.33" ry="6.49" transform="translate(-146.58 132.22) rotate(-67.52)"/>
    <ellipse class="cls-1" cx="32.75" cy="164.55" rx="5.33" ry="6.49" transform="translate(-131.82 131.91) rotate(-67.52)"/>
    <ellipse class="cls-1" cx="39.31" cy="171.5" rx="5.33" ry="6.49" transform="translate(-134.19 142.25) rotate(-67.52)"/>
    <ellipse class="cls-1" cx="35.18" cy="178.86" rx="5.33" ry="6.49" transform="translate(-143.54 142.99) rotate(-67.52)"/>
    <ellipse class="cls-2" cx="32.15" cy="171.84" rx="2.66" ry="3.24" transform="translate(-138.93 135.85) rotate(-67.52)"/>
  </g>
</svg>
