<svg id="Layer_1" data-name="Layer 1" xmlns="http://www.w3.org/2000/svg" viewBox="0 0 575.34 280.72">
  <defs>
    <style>
      .cls-1 {
        fill: #dab9d9;
      }

      .cls-2 {
        fill: #ad66a6;
        stroke: #a64895;
      }

      .cls-13, .cls-14, .cls-17, .cls-2, .cls-20, .cls-21, .cls-24, .cls-26, .cls-28, .cls-29, .cls-3, .cls-4, .cls-7, .cls-8, .cls-9 {
        stroke-miterlimit: 10;
      }

      .cls-3 {
        fill: #b86daa;
        stroke: #af539a;
      }

      .cls-4 {
        fill: #f0b2a2;
        stroke: #f0b5a5;
      }

      .cls-5 {
        fill: #f29dbc;
      }

      .cls-6 {
        fill: #aa7d71;
      }

      .cls-7 {
        fill: #e6007e;
      }

      .cls-7, .cls-9 {
        stroke: #e30613;
      }

      .cls-13, .cls-14, .cls-8, .cls-9 {
        fill: none;
      }

      .cls-8 {
        stroke: #e6007e;
      }

      .cls-10 {
        fill: #8a4714;
      }

      .cls-11 {
        fill: #1d1d1b;
      }

      .cls-12 {
        fill: #fff;
      }

      .cls-13, .cls-14 {
        stroke: #1d1d1b;
      }

      .cls-13 {
        stroke-width: 1.5px;
      }

      .cls-14 {
        stroke-width: 0.75px;
      }

      .cls-15 {
        fill: #0085c8;
      }

      .cls-16, .cls-17 {
        fill: #36a9e1;
      }

      .cls-17 {
        stroke: #009fe3;
      }

      .cls-18 {
        fill: #ef7b49;
      }

      .cls-19 {
        fill: #ea4d79;
      }

      .cls-20 {
        fill: #df7b8a;
      }

      .cls-20, .cls-21 {
        stroke: #be1622;
      }

      .cls-21 {
        fill: #e51a36;
      }

      .cls-22 {
        fill: #ffe7b4;
      }

      .cls-23 {
        fill: #8fc57e;
      }

      .cls-24 {
        fill: #bcd689;
        stroke: #95c11f;
      }

      .cls-25 {
        fill: #3e2a0d;
      }

      .cls-26 {
        fill: #f18eb0;
        stroke: #e83c77;
      }

      .cls-27 {
        fill: #fbee74;
      }

      .cls-28 {
        fill: #006bb3;
        stroke: #006295;
      }

      .cls-29 {
        fill: #aad197;
        stroke: #88b01d;
      }
    </style>
  </defs>
  <g>
    <ellipse class="cls-1" cx="74.48" cy="152.18" rx="65.37" ry="123.67"/>
    <path class="cls-2" d="M8.39,130.44c-.49,1.39,1.13,4.51,4.53,4.82,3.2.3,5.66-2.18,5.61-3.88,0-1.41-1.78-1.47-4.52-4.82-.73-.89-1.19-2.13-2.26-2.23a1.9,1.9,0,0,0-1.36.43c-.48.41-.32.85-.73,2.45-.14.56-.28,1-.33,1.12A18,18,0,0,1,8.39,130.44Z"/>
    <ellipse class="cls-2" cx="89.06" cy="139.22" rx="5.1" ry="4.38"/>
    <ellipse class="cls-2" cx="82.26" cy="134.84" rx="5.1" ry="4.38"/>
    <ellipse class="cls-2" cx="78.63" cy="129.6" rx="4.2" ry="3.61"/>
    <ellipse class="cls-2" cx="76.12" cy="126.31" rx="2.92" ry="2.68"/>
    <ellipse class="cls-2" cx="70.03" cy="127.5" rx="4.24" ry="3.83"/>
    <ellipse class="cls-2" cx="64.93" cy="132.43" rx="5.1" ry="4.38"/>
    <ellipse class="cls-2" cx="58" cy="136.16" rx="5.1" ry="4.38"/>
    <ellipse class="cls-2" cx="49.92" cy="139.22" rx="5.1" ry="4.38"/>
    <ellipse class="cls-2" cx="41.5" cy="140.95" rx="5.1" ry="4.38"/>
    <ellipse class="cls-2" cx="32.1" cy="139.81" rx="5.1" ry="4.38"/>
    <ellipse class="cls-2" cx="23.11" cy="137.47" rx="5.1" ry="4.38"/>
    <ellipse class="cls-2" cx="16.34" cy="134.84" rx="5.1" ry="4.38"/>
    <ellipse class="cls-2" cx="98.06" cy="141.84" rx="5.1" ry="4.38"/>
    <ellipse class="cls-2" cx="107.36" cy="143.3" rx="5.1" ry="4.38"/>
    <ellipse class="cls-2" cx="128.55" cy="136.16" rx="5.1" ry="4.38"/>
    <ellipse class="cls-2" cx="121.72" cy="140.54" rx="5.1" ry="4.38"/>
    <ellipse class="cls-2" cx="115.29" cy="143.3" rx="5.1" ry="4.38"/>
    <path class="cls-2" d="M139.85,130.82c.32,1.42-1.68,4.37-5.1,4.38-3.22,0-5.35-2.7-5.1-4.38.22-1.4,2-1.3,5.1-4.38.84-.81,1.45-2,2.53-2a1.83,1.83,0,0,1,1.29.55c.43.46.22.88.43,2.51.07.57.15,1,.18,1.14A21,21,0,0,0,139.85,130.82Z"/>
    <ellipse class="cls-3" cx="74.48" cy="68.14" rx="58.15" ry="55.89"/>
    <ellipse class="cls-3" cx="74.42" cy="265.34" rx="49.35" ry="12.15"/>
    <ellipse class="cls-4" cx="74.48" cy="69.84" rx="41.53" ry="37.04"/>
    <ellipse class="cls-5" cx="50.42" cy="85.88" rx="6.31" ry="5.41"/>
    <ellipse class="cls-5" cx="100.47" cy="85" rx="6.31" ry="5.41"/>
    <ellipse class="cls-6" cx="78.63" cy="83.55" rx="1.28" ry="1.1"/>
    <ellipse class="cls-6" cx="72.99" cy="83.55" rx="1.28" ry="1.1"/>
    <g>
      <path class="cls-7" d="M79.63,96.43c-.09.59,2,.82,2.12,1.56.17.94-2.83,2.47-5.92,2.42S69.71,98.59,70,97.74c.17-.54,1.59-.63,1.6-1.15S70.27,96,70,95.37c-.54-1.15,2.61-3.36,4.16-3,.81.21.86,1,1.59,1.07s1-.83,1.89-1c1.72-.37,4.74,1.79,4.22,2.82C81.49,96,79.71,95.88,79.63,96.43Z"/>
      <path class="cls-8" d="M79.56,96.72a10.6,10.6,0,0,0,5.34-.93,7.56,7.56,0,0,0,3-2.47"/>
      <path class="cls-8" d="M63.22,93.81a8.48,8.48,0,0,0,4.36,2.62,10.47,10.47,0,0,0,4.29.19"/>
      <path class="cls-9" d="M70.36,95.82a10.65,10.65,0,0,0,5.42,1.12,10.46,10.46,0,0,0,4.16-1.12"/>
    </g>
    <path class="cls-10" d="M79.91,47.76c5.34-4.58,7.79-12.06,5.18-14.84-1.45-1.55-4.5-1.45-10.61-1.26-3.85.12-7.65,0-12.18,1.42A47,47,0,0,0,42.69,44.33c-3.23,3.19-9.42,9.31-8.56,16.62.15,1.23.41,3.25,1.89,3.89,2.89,1.24,7.1-4.25,13.12-8.1C61.67,48.73,71.17,55.26,79.91,47.76Z"/>
    <path class="cls-10" d="M104.68,43.5a31.64,31.64,0,0,1,6.1,7c1.53,2.41,3.43,5.4,2.15,6.75s-4.45.49-6.94-.08A23.82,23.82,0,0,1,94.3,51.53c-1.88-1.77-3.11-4.23-5.59-9.15-2.69-5.33-4-8-3.25-8.67C87.57,31.9,98.4,38.35,104.68,43.5Z"/>
    <path class="cls-3" d="M55.71,138.21c-15.89,6.76-31.88-.82-37.3-3.35-2.82-1.32-4.94-2.76-6.31-4.91-1.84-2.88-1.4-5.58-.12-12.71,1.61-9,2.45-13.17,2.9-15.34.1-.49.17-.85.25-1.19,3.46-16.58,4.09-17,4.54-17.14,3.37-.71,4.74,16.52,18.22,23.78,14.91,8,33.43-3.35,37.3,3.35C80.11,119.22,71.39,131.53,55.71,138.21Z"/>
    <path class="cls-3" d="M92.94,140.11c15.81,6.73,32-1.37,37.53-4.06,2.87-1.41,5-2.93,6.45-5.18,1.91-3,1.53-5.79.4-13.13-1.42-9.24-2.17-13.57-2.57-15.81l-.22-1.22c-.63-3.25-2.93-15.21-6.39-15.69-4.08-.57-4.15,15.58-16.62,22.92C97.17,116.39,78,105,74,112,68.85,120.89,77.34,133.47,92.94,140.11Z"/>
    <path class="cls-3" d="M127.6,224.27c1.3,1.34-3.54,9.39-13.3,25.43-4.9,8.07-5.74,9.2-7.84,10.36-5.8,3.2-10,.44-32.19-.46-9.37-.38-14-.57-17.49-.12-5.86.79-9,2.08-12.81.76-4.41-1.52-6.42-5.34-7.71-7.73-11.66-21.68-16.72-24.95-14.49-27.2,4.7-4.75,23.75,13.43,52.81,13.25S123.37,219.89,127.6,224.27Z"/>
    <g>
      <ellipse class="cls-11" cx="57.88" cy="71.04" rx="5.01" ry="4.58"/>
      <ellipse class="cls-12" cx="57.68" cy="73.01" rx="0.81" ry="0.74"/>
      <ellipse class="cls-12" cx="59.78" cy="70.91" rx="1.49" ry="1.36"/>
      <path class="cls-13" d="M64.47,74.26c0-.31.27-4.66-3.18-6.79a8.41,8.41,0,0,0-6.12-.8c-3.36,1-3.74,3.76-8.24,5.73a15,15,0,0,1-2.92.94"/>
      <path class="cls-14" d="M42.63,66.26A9.21,9.21,0,0,0,44.3,69a11,11,0,0,0,3.55,2.65"/>
      <path class="cls-14" d="M46.14,65.53A4.3,4.3,0,0,0,47,68a5.48,5.48,0,0,0,3.21,1.79"/>
      <path class="cls-14" d="M49.17,65.53a3.6,3.6,0,0,0,.94,1.92,4.58,4.58,0,0,0,2.13,1.26"/>
    </g>
    <g>
      <ellipse class="cls-11" cx="91.56" cy="70.06" rx="5.01" ry="4.58"/>
      <ellipse class="cls-12" cx="91.76" cy="72.04" rx="0.81" ry="0.74"/>
      <ellipse class="cls-12" cx="89.67" cy="69.93" rx="1.49" ry="1.36"/>
      <path class="cls-13" d="M85,73.28c0-.3-.28-4.66,3.17-6.79a8.44,8.44,0,0,1,6.12-.79c3.37.94,3.75,3.76,8.25,5.72a15.94,15.94,0,0,0,2.92,1"/>
      <path class="cls-14" d="M106.82,65.29a9.28,9.28,0,0,1-1.68,2.77,10.9,10.9,0,0,1-3.54,2.65"/>
      <path class="cls-14" d="M103.31,64.55a4.35,4.35,0,0,1-.9,2.48,5.51,5.51,0,0,1-3.21,1.79"/>
      <path class="cls-14" d="M100.27,64.55a3.43,3.43,0,0,1-.93,1.92,4.62,4.62,0,0,1-2.13,1.27"/>
    </g>
  </g>
  <g>
    <ellipse class="cls-15" cx="214.26" cy="152.23" rx="65.37" ry="123.67"/>
    <path class="cls-16" d="M148.16,130.49c-.49,1.39,1.13,4.51,4.53,4.82,3.2.3,5.66-2.18,5.61-3.88,0-1.41-1.78-1.47-4.52-4.82-.73-.89-1.18-2.13-2.26-2.23a1.94,1.94,0,0,0-1.36.42c-.48.42-.32.86-.73,2.46-.14.56-.28,1-.33,1.12A18,18,0,0,1,148.16,130.49Z"/>
    <ellipse class="cls-16" cx="228.83" cy="139.26" rx="5.1" ry="4.38"/>
    <ellipse class="cls-16" cx="222.03" cy="134.89" rx="5.1" ry="4.38"/>
    <ellipse class="cls-16" cx="218.4" cy="129.65" rx="4.2" ry="3.61"/>
    <ellipse class="cls-16" cx="215.89" cy="126.36" rx="2.92" ry="2.68"/>
    <ellipse class="cls-16" cx="209.8" cy="127.55" rx="4.24" ry="3.83"/>
    <ellipse class="cls-16" cx="204.7" cy="132.47" rx="5.1" ry="4.38"/>
    <ellipse class="cls-16" cx="197.77" cy="136.21" rx="5.1" ry="4.38"/>
    <ellipse class="cls-16" cx="189.69" cy="139.26" rx="5.1" ry="4.38"/>
    <ellipse class="cls-16" cx="181.27" cy="140.99" rx="5.1" ry="4.38"/>
    <ellipse class="cls-16" cx="171.88" cy="139.86" rx="5.1" ry="4.38"/>
    <ellipse class="cls-16" cx="162.88" cy="137.52" rx="5.1" ry="4.38"/>
    <ellipse class="cls-16" cx="156.11" cy="134.89" rx="5.1" ry="4.38"/>
    <ellipse class="cls-16" cx="237.83" cy="141.89" rx="5.1" ry="4.38"/>
    <ellipse class="cls-16" cx="247.14" cy="143.35" rx="5.1" ry="4.38"/>
    <ellipse class="cls-16" cx="268.32" cy="136.21" rx="5.1" ry="4.38"/>
    <ellipse class="cls-16" cx="261.5" cy="140.59" rx="5.1" ry="4.38"/>
    <ellipse class="cls-16" cx="255.07" cy="143.35" rx="5.1" ry="4.38"/>
    <path class="cls-16" d="M279.62,130.87c.32,1.42-1.68,4.37-5.1,4.37-3.22,0-5.35-2.69-5.09-4.37.21-1.4,1.95-1.3,5.09-4.38.84-.82,1.45-2,2.53-2a1.83,1.83,0,0,1,1.29.55c.43.46.22.88.43,2.51.07.57.15,1,.18,1.14A21,21,0,0,0,279.62,130.87Z"/>
    <ellipse class="cls-17" cx="214.26" cy="68.19" rx="58.15" ry="55.89"/>
    <ellipse class="cls-17" cx="214.2" cy="265.39" rx="49.35" ry="12.15"/>
    <ellipse class="cls-4" cx="214.26" cy="69.88" rx="41.53" ry="37.04"/>
    <ellipse class="cls-5" cx="190.19" cy="85.93" rx="6.31" ry="5.41"/>
    <ellipse class="cls-5" cx="240.24" cy="85.05" rx="6.31" ry="5.41"/>
    <ellipse class="cls-6" cx="218.4" cy="83.6" rx="1.28" ry="1.1"/>
    <ellipse class="cls-6" cx="212.76" cy="83.6" rx="1.28" ry="1.1"/>
    <g>
      <path class="cls-7" d="M219.4,96.48c-.09.59,2,.82,2.12,1.56.17.94-2.83,2.47-5.92,2.42s-6.12-1.82-5.84-2.67c.17-.55,1.6-.63,1.6-1.16s-1.32-.58-1.62-1.21c-.54-1.15,2.61-3.36,4.16-3,.81.21.86,1,1.59,1.07s1-.83,1.89-1c1.72-.38,4.74,1.79,4.22,2.81C221.26,96,219.48,95.93,219.4,96.48Z"/>
      <path class="cls-8" d="M219.33,96.76a10.43,10.43,0,0,0,5.34-.92,7.56,7.56,0,0,0,3-2.47"/>
      <path class="cls-8" d="M203,93.86a8.48,8.48,0,0,0,4.36,2.62,10.65,10.65,0,0,0,4.29.19"/>
      <path class="cls-9" d="M210.13,95.87A10.76,10.76,0,0,0,215.55,97a10.46,10.46,0,0,0,4.16-1.12"/>
    </g>
    <path class="cls-18" d="M219.68,47.81c5.34-4.58,7.79-12.06,5.19-14.84-1.46-1.55-4.51-1.46-10.61-1.27-3.86.12-7.66,0-12.19,1.43a47,47,0,0,0-19.61,11.25C179.23,47.56,173,53.69,173.9,61c.15,1.24.41,3.26,1.89,3.9,2.89,1.24,7.11-4.25,13.12-8.1C201.44,48.78,210.94,55.31,219.68,47.81Z"/>
    <path class="cls-18" d="M244.45,43.55a31.37,31.37,0,0,1,6.1,7C252.08,53,254,56,252.7,57.33s-4.45.49-6.94-.07a24,24,0,0,1-11.69-5.68c-1.87-1.77-3.11-4.23-5.59-9.15-2.69-5.34-4-8-3.25-8.67C227.34,32,238.17,38.4,244.45,43.55Z"/>
    <path class="cls-17" d="M195.48,138.26c-15.89,6.76-31.88-.83-37.3-3.35-2.82-1.32-4.94-2.76-6.31-4.91-1.84-2.88-1.4-5.58-.12-12.71,1.62-9,2.45-13.17,2.9-15.34.1-.49.17-.85.25-1.2,3.46-16.57,4.09-17,4.55-17.13,3.36-.71,4.73,16.52,18.21,23.78,14.92,8,33.43-3.35,37.3,3.35C219.88,119.27,211.16,131.58,195.48,138.26Z"/>
    <path class="cls-17" d="M232.71,140.16c15.81,6.73,32-1.37,37.53-4.07,2.87-1.4,5-2.92,6.45-5.17,1.91-3,1.53-5.79.4-13.14-1.42-9.23-2.17-13.57-2.57-15.8-.13-.73-.2-1.1-.22-1.23-.63-3.24-2.93-15.2-6.39-15.69-4.08-.56-4.15,15.59-16.62,22.93-14.35,8.44-33.48-3-37.54,4.06C208.62,120.94,217.11,133.52,232.71,140.16Z"/>
    <path class="cls-17" d="M267.37,224.31c1.31,1.35-3.54,9.4-13.3,25.44-4.9,8.07-5.74,9.2-7.84,10.35-5.8,3.2-10,.45-32.19-.45-9.37-.39-14-.58-17.49-.12-5.86.78-9,2.08-12.81.75-4.41-1.52-6.42-5.33-7.71-7.73-11.66-21.67-16.72-24.94-14.49-27.19,4.7-4.75,23.75,13.43,52.81,13.24S263.14,219.94,267.37,224.31Z"/>
    <g>
      <ellipse class="cls-11" cx="197.65" cy="71.08" rx="5.01" ry="4.58"/>
      <ellipse class="cls-12" cx="197.45" cy="73.06" rx="0.81" ry="0.74"/>
      <ellipse class="cls-12" cx="199.55" cy="70.96" rx="1.49" ry="1.36"/>
      <path class="cls-13" d="M204.24,74.31c0-.31.28-4.67-3.18-6.8a8.44,8.44,0,0,0-6.12-.79c-3.36,1-3.74,3.76-8.24,5.73a15.77,15.77,0,0,1-2.92.94"/>
      <path class="cls-14" d="M182.4,66.31a9.21,9.21,0,0,0,1.67,2.77,11,11,0,0,0,3.55,2.65"/>
      <path class="cls-14" d="M185.91,65.58a4.3,4.3,0,0,0,.9,2.48A5.49,5.49,0,0,0,190,69.84"/>
      <path class="cls-14" d="M188.94,65.58a3.6,3.6,0,0,0,.94,1.92A4.58,4.58,0,0,0,192,68.76"/>
    </g>
    <g>
      <ellipse class="cls-11" cx="231.33" cy="70.11" rx="5.01" ry="4.58"/>
      <ellipse class="cls-12" cx="231.53" cy="72.09" rx="0.81" ry="0.74"/>
      <ellipse class="cls-12" cx="229.44" cy="69.98" rx="1.49" ry="1.36"/>
      <path class="cls-13" d="M224.75,73.33c0-.3-.28-4.66,3.18-6.79a8.47,8.47,0,0,1,6.12-.8c3.36,1,3.74,3.76,8.24,5.73a15,15,0,0,0,2.92.94"/>
      <path class="cls-14" d="M246.59,65.33a9.43,9.43,0,0,1-1.68,2.78,10.85,10.85,0,0,1-3.54,2.64"/>
      <path class="cls-14" d="M243.08,64.6a4.3,4.3,0,0,1-.9,2.48A5.51,5.51,0,0,1,239,68.87"/>
      <path class="cls-14" d="M240,64.6a3.46,3.46,0,0,1-.93,1.92A4.49,4.49,0,0,1,237,67.78"/>
    </g>
  </g>
  <g>
    <ellipse class="cls-19" cx="361.33" cy="152.63" rx="65.37" ry="123.67"/>
    <path class="cls-20" d="M295.23,130.9c-.49,1.38,1.13,4.5,4.53,4.82,3.2.29,5.66-2.19,5.61-3.89,0-1.41-1.78-1.46-4.52-4.82-.73-.88-1.18-2.13-2.26-2.23a1.91,1.91,0,0,0-1.35.43c-.49.42-.33.85-.74,2.46-.14.56-.28,1-.33,1.11A18.45,18.45,0,0,1,295.23,130.9Z"/>
    <ellipse class="cls-20" cx="375.9" cy="139.67" rx="5.1" ry="4.38"/>
    <ellipse class="cls-20" cx="369.1" cy="135.29" rx="5.1" ry="4.38"/>
    <ellipse class="cls-20" cx="365.47" cy="130.06" rx="4.2" ry="3.61"/>
    <ellipse class="cls-20" cx="362.96" cy="126.77" rx="2.92" ry="2.68"/>
    <ellipse class="cls-20" cx="356.87" cy="127.95" rx="4.24" ry="3.83"/>
    <ellipse class="cls-20" cx="351.77" cy="132.88" rx="5.1" ry="4.38"/>
    <ellipse class="cls-20" cx="344.84" cy="136.62" rx="5.1" ry="4.38"/>
    <ellipse class="cls-20" cx="336.76" cy="139.67" rx="5.1" ry="4.38"/>
    <ellipse class="cls-20" cx="328.34" cy="141.4" rx="5.1" ry="4.38"/>
    <ellipse class="cls-20" cx="318.95" cy="140.27" rx="5.1" ry="4.38"/>
    <ellipse class="cls-20" cx="309.95" cy="137.92" rx="5.1" ry="4.38"/>
    <ellipse class="cls-20" cx="303.18" cy="135.29" rx="5.1" ry="4.38"/>
    <ellipse class="cls-20" cx="384.9" cy="142.3" rx="5.1" ry="4.38"/>
    <ellipse class="cls-20" cx="394.21" cy="143.76" rx="5.1" ry="4.38"/>
    <ellipse class="cls-20" cx="415.39" cy="136.62" rx="5.1" ry="4.38"/>
    <ellipse class="cls-20" cx="408.57" cy="140.99" rx="5.1" ry="4.38"/>
    <ellipse class="cls-20" cx="402.14" cy="143.76" rx="5.1" ry="4.38"/>
    <path class="cls-20" d="M426.69,131.27c.32,1.43-1.68,4.38-5.1,4.38-3.22,0-5.35-2.69-5.09-4.38.21-1.4,1.95-1.29,5.09-4.38.84-.81,1.45-2,2.53-2a1.91,1.91,0,0,1,1.29.55c.43.46.22.88.43,2.51.07.57.15,1,.18,1.14A20.21,20.21,0,0,0,426.69,131.27Z"/>
    <ellipse class="cls-21" cx="361.33" cy="68.59" rx="58.15" ry="55.89"/>
    <ellipse class="cls-21" cx="361.27" cy="265.8" rx="49.35" ry="12.15"/>
    <ellipse class="cls-4" cx="361.33" cy="70.29" rx="41.53" ry="37.04"/>
    <ellipse class="cls-5" cx="337.26" cy="86.34" rx="6.31" ry="5.41"/>
    <ellipse class="cls-5" cx="387.31" cy="85.45" rx="6.31" ry="5.41"/>
    <ellipse class="cls-6" cx="365.47" cy="84" rx="1.28" ry="1.1"/>
    <ellipse class="cls-6" cx="359.83" cy="84" rx="1.28" ry="1.1"/>
    <g>
      <path class="cls-7" d="M366.47,96.88c-.09.6,2,.83,2.12,1.56.17.94-2.83,2.47-5.91,2.43-3.23-.05-6.13-1.83-5.85-2.68.17-.54,1.6-.62,1.6-1.15s-1.32-.58-1.62-1.22c-.54-1.14,2.61-3.35,4.16-3,.81.21.86,1,1.59,1.07s1-.82,1.89-1c1.72-.38,4.74,1.78,4.22,2.81C368.33,96.4,366.55,96.33,366.47,96.88Z"/>
      <path class="cls-8" d="M366.4,97.17a10.36,10.36,0,0,0,5.34-.93,7.47,7.47,0,0,0,3-2.47"/>
      <path class="cls-8" d="M350.06,94.26a8.41,8.41,0,0,0,4.36,2.63,10.6,10.6,0,0,0,4.29.18"/>
      <path class="cls-9" d="M357.2,96.27a10.55,10.55,0,0,0,5.42,1.12,10.13,10.13,0,0,0,4.16-1.12"/>
    </g>
    <path class="cls-22" d="M366.75,48.21c5.34-4.58,7.79-12.05,5.19-14.84-1.46-1.55-4.51-1.45-10.61-1.26-3.86.12-7.66,0-12.19,1.42a47.08,47.08,0,0,0-19.61,11.25C326.3,48,320.11,54.09,321,61.4c.15,1.23.41,3.26,1.89,3.89C325.75,66.53,330,61,336,57.2,348.51,49.18,358,55.71,366.75,48.21Z"/>
    <path class="cls-22" d="M391.52,44a31.64,31.64,0,0,1,6.1,7c1.53,2.41,3.44,5.41,2.15,6.75s-4.45.49-6.94-.07A24,24,0,0,1,381.14,52c-1.87-1.77-3.11-4.24-5.59-9.16-2.69-5.33-4-8-3.25-8.67C374.41,32.35,385.24,38.8,391.52,44Z"/>
    <path class="cls-21" d="M342.55,138.66c-15.89,6.76-31.88-.82-37.3-3.35-2.82-1.31-4.94-2.75-6.31-4.9-1.84-2.89-1.4-5.59-.12-12.72,1.62-9,2.45-13.17,2.9-15.34.1-.49.17-.84.25-1.19,3.46-16.58,4.09-17,4.55-17.13,3.36-.72,4.73,16.51,18.21,23.77,14.92,8,33.43-3.35,37.3,3.35C367,119.67,358.23,132,342.55,138.66Z"/>
    <path class="cls-21" d="M379.78,140.56c15.81,6.73,32-1.36,37.53-4.06,2.87-1.41,5-2.93,6.46-5.17,1.9-3,1.53-5.79.39-13.14-1.42-9.24-2.17-13.57-2.57-15.81-.13-.73-.2-1.09-.22-1.22-.63-3.25-2.93-15.21-6.39-15.69-4.08-.57-4.15,15.58-16.62,22.92-14.35,8.45-33.48-3-37.54,4.07C355.69,121.34,364.18,133.92,379.78,140.56Z"/>
    <path class="cls-21" d="M414.44,224.72c1.31,1.35-3.54,9.39-13.3,25.43-4.9,8.07-5.74,9.2-7.84,10.36-5.8,3.2-10,.44-32.19-.46-9.37-.38-14.05-.57-17.49-.11-5.86.78-9,2.07-12.81.75-4.41-1.52-6.42-5.34-7.71-7.73-11.66-21.68-16.72-25-14.49-27.2,4.7-4.75,23.75,13.44,52.81,13.25S410.21,220.34,414.44,224.72Z"/>
    <g>
      <ellipse class="cls-11" cx="344.73" cy="71.49" rx="5.01" ry="4.58"/>
      <ellipse class="cls-12" cx="344.53" cy="73.47" rx="0.81" ry="0.74"/>
      <ellipse class="cls-12" cx="346.62" cy="71.36" rx="1.49" ry="1.36"/>
      <path class="cls-13" d="M351.31,74.71c0-.3.28-4.66-3.18-6.79a8.44,8.44,0,0,0-6.12-.79c-3.36.94-3.74,3.76-8.24,5.72a15.94,15.94,0,0,1-2.92,1"/>
      <path class="cls-14" d="M329.47,66.71a9.24,9.24,0,0,0,1.67,2.78,10.82,10.82,0,0,0,3.55,2.64"/>
      <path class="cls-14" d="M333,66a4.3,4.3,0,0,0,.9,2.48,5.51,5.51,0,0,0,3.21,1.79"/>
      <path class="cls-14" d="M336,66A3.57,3.57,0,0,0,337,67.9a4.49,4.49,0,0,0,2.13,1.26"/>
    </g>
    <g>
      <ellipse class="cls-11" cx="378.4" cy="70.51" rx="5.01" ry="4.58"/>
      <ellipse class="cls-12" cx="378.6" cy="72.49" rx="0.81" ry="0.74"/>
      <ellipse class="cls-12" cx="376.51" cy="70.39" rx="1.49" ry="1.36"/>
      <path class="cls-13" d="M371.82,73.73c0-.3-.28-4.66,3.18-6.79a8.44,8.44,0,0,1,6.12-.79c3.36.94,3.74,3.76,8.24,5.73a15.77,15.77,0,0,0,2.92.94"/>
      <path class="cls-14" d="M393.66,65.74A9.42,9.42,0,0,1,392,68.51a11,11,0,0,1-3.55,2.65"/>
      <path class="cls-14" d="M390.15,65a4.3,4.3,0,0,1-.9,2.49A5.49,5.49,0,0,1,386,69.27"/>
      <path class="cls-14" d="M387.11,65a3.48,3.48,0,0,1-.93,1.93,4.58,4.58,0,0,1-2.13,1.26"/>
    </g>
  </g>
  <g>
    <ellipse class="cls-23" cx="501.61" cy="153.98" rx="65.37" ry="123.67"/>
    <path class="cls-24" d="M435.52,132.25c-.49,1.38,1.13,4.5,4.52,4.82,3.21.29,5.66-2.19,5.62-3.89,0-1.41-1.78-1.46-4.53-4.82-.72-.88-1.18-2.13-2.26-2.23a1.94,1.94,0,0,0-1.35.43c-.48.42-.33.86-.73,2.46-.15.56-.28,1-.33,1.11A23.13,23.13,0,0,1,435.52,132.25Z"/>
    <ellipse class="cls-24" cx="516.19" cy="141.02" rx="5.1" ry="4.38"/>
    <ellipse class="cls-24" cx="509.38" cy="136.64" rx="5.1" ry="4.38"/>
    <ellipse class="cls-24" cx="505.75" cy="131.41" rx="4.2" ry="3.61"/>
    <ellipse class="cls-16" cx="503.25" cy="128.12" rx="2.92" ry="2.68"/>
    <ellipse class="cls-24" cx="497.15" cy="129.3" rx="4.24" ry="3.83"/>
    <ellipse class="cls-24" cx="492.05" cy="134.23" rx="5.1" ry="4.38"/>
    <ellipse class="cls-24" cx="485.12" cy="137.97" rx="5.1" ry="4.38"/>
    <ellipse class="cls-24" cx="477.05" cy="141.02" rx="5.1" ry="4.38"/>
    <ellipse class="cls-24" cx="468.63" cy="142.75" rx="5.1" ry="4.38"/>
    <ellipse class="cls-24" cx="459.23" cy="141.62" rx="5.1" ry="4.38"/>
    <ellipse class="cls-24" cx="450.24" cy="139.27" rx="5.1" ry="4.38"/>
    <ellipse class="cls-24" cx="443.46" cy="136.64" rx="5.1" ry="4.38"/>
    <ellipse class="cls-24" cx="525.18" cy="143.65" rx="5.1" ry="4.38"/>
    <ellipse class="cls-24" cx="534.49" cy="145.11" rx="5.1" ry="4.38"/>
    <ellipse class="cls-24" cx="555.67" cy="137.97" rx="5.1" ry="4.38"/>
    <ellipse class="cls-24" cx="548.85" cy="142.35" rx="5.1" ry="4.38"/>
    <ellipse class="cls-24" cx="542.42" cy="145.11" rx="5.1" ry="4.38"/>
    <path class="cls-24" d="M567,132.62c.32,1.43-1.68,4.38-5.1,4.38-3.22,0-5.36-2.69-5.1-4.38.21-1.4,2-1.29,5.1-4.37.83-.82,1.44-2,2.53-2a1.88,1.88,0,0,1,1.29.54c.43.46.22.89.42,2.52.07.57.16,1,.19,1.14A18.3,18.3,0,0,0,567,132.62Z"/>
    <ellipse class="cls-24" cx="501.61" cy="69.94" rx="58.15" ry="55.89"/>
    <ellipse class="cls-24" cx="501.55" cy="267.15" rx="49.35" ry="12.15"/>
    <ellipse class="cls-4" cx="501.61" cy="71.64" rx="41.53" ry="37.04"/>
    <ellipse class="cls-5" cx="477.55" cy="87.69" rx="6.31" ry="5.41"/>
    <ellipse class="cls-5" cx="527.59" cy="86.81" rx="6.31" ry="5.41"/>
    <ellipse class="cls-6" cx="505.75" cy="85.36" rx="1.28" ry="1.1"/>
    <ellipse class="cls-6" cx="500.12" cy="85.36" rx="1.28" ry="1.1"/>
    <g>
      <path class="cls-7" d="M506.76,98.23c-.09.6,2,.83,2.12,1.57.17.93-2.84,2.46-5.92,2.42s-6.12-1.82-5.85-2.68c.18-.54,1.6-.62,1.61-1.15s-1.32-.58-1.62-1.22c-.54-1.14,2.6-3.35,4.16-3,.8.2.85,1,1.59,1.06s1-.82,1.89-1c1.72-.38,4.73,1.78,4.22,2.81C508.62,97.75,506.84,97.68,506.76,98.23Z"/>
      <path class="cls-8" d="M506.68,98.52a10.36,10.36,0,0,0,5.34-.93,7.61,7.61,0,0,0,3-2.47"/>
      <path class="cls-8" d="M490.35,95.62a8.48,8.48,0,0,0,4.36,2.62,10.42,10.42,0,0,0,4.29.18"/>
      <path class="cls-9" d="M497.48,97.63a10.75,10.75,0,0,0,5.42,1.11,10.39,10.39,0,0,0,4.17-1.11"/>
    </g>
    <path class="cls-25" d="M507,49.57c5.33-4.58,7.79-12.06,5.18-14.84-1.45-1.55-4.5-1.46-10.61-1.27-3.86.12-7.65,0-12.19,1.43a47,47,0,0,0-19.61,11.24c-3.22,3.19-9.42,9.31-8.55,16.62.14,1.24.41,3.26,1.89,3.89,2.89,1.25,7.1-4.25,13.11-8.09C488.79,50.53,498.3,57.06,507,49.57Z"/>
    <path class="cls-25" d="M531.81,45.31a31.2,31.2,0,0,1,6.1,7c1.53,2.41,3.43,5.41,2.14,6.75s-4.45.49-6.94-.07a24.08,24.08,0,0,1-11.69-5.68c-1.87-1.77-3.11-4.23-5.59-9.16-2.68-5.33-4-8-3.25-8.67C514.69,33.7,525.52,40.16,531.81,45.31Z"/>
    <path class="cls-24" d="M482.84,140c-15.9,6.77-31.88-.82-37.3-3.34-2.83-1.32-5-2.76-6.32-4.91-1.84-2.88-1.4-5.59-.11-12.72,1.61-9,2.45-13.17,2.89-15.34.1-.49.18-.84.25-1.19,3.46-16.58,4.09-17,4.55-17.13,3.36-.72,4.74,16.52,18.22,23.78,14.91,8,33.43-3.36,37.3,3.34C507.24,121,498.52,133.34,482.84,140Z"/>
    <path class="cls-24" d="M520.06,141.91c15.82,6.73,32-1.36,37.54-4.06,2.87-1.4,5-2.93,6.45-5.17,1.91-3,1.53-5.79.4-13.14-1.43-9.24-2.17-13.57-2.57-15.8-.14-.74-.2-1.1-.23-1.23-.62-3.25-2.92-15.21-6.39-15.69-4.07-.57-4.15,15.59-16.62,22.93-14.34,8.44-33.48-3-37.53,4.06C496,122.69,504.47,135.28,520.06,141.91Z"/>
    <path class="cls-24" d="M554.73,226.07c1.3,1.35-3.55,9.39-13.3,25.43-4.91,8.08-5.75,9.2-7.84,10.36-5.81,3.2-10,.44-32.2-.46-9.36-.38-14.05-.57-17.49-.11-5.86.78-9,2.08-12.8.75-4.41-1.52-6.43-5.34-7.71-7.73-11.67-21.67-16.72-24.95-14.5-27.19,4.71-4.75,23.76,13.43,52.82,13.24S550.5,221.69,554.73,226.07Z"/>
    <g>
      <ellipse class="cls-11" cx="485.01" cy="72.84" rx="5.01" ry="4.58"/>
      <ellipse class="cls-12" cx="484.81" cy="74.82" rx="0.81" ry="0.74"/>
      <ellipse class="cls-12" cx="486.91" cy="72.72" rx="1.49" ry="1.36"/>
      <path class="cls-13" d="M491.6,76.06c0-.3.27-4.66-3.18-6.79a8.44,8.44,0,0,0-6.12-.79c-3.37.94-3.75,3.76-8.24,5.72a15.42,15.42,0,0,1-2.92,1"/>
      <path class="cls-14" d="M469.76,68.07a9,9,0,0,0,1.67,2.77A10.92,10.92,0,0,0,475,73.49"/>
      <path class="cls-14" d="M473.27,67.33a4.23,4.23,0,0,0,.89,2.48,5.5,5.5,0,0,0,3.22,1.79"/>
      <path class="cls-14" d="M476.3,67.33a3.5,3.5,0,0,0,.93,1.92,4.64,4.64,0,0,0,2.14,1.27"/>
    </g>
    <g>
      <ellipse class="cls-11" cx="518.69" cy="71.87" rx="5.01" ry="4.58"/>
      <ellipse class="cls-12" cx="518.89" cy="73.84" rx="0.81" ry="0.74"/>
      <ellipse class="cls-12" cx="516.79" cy="71.74" rx="1.49" ry="1.36"/>
      <path class="cls-13" d="M512.1,75.09c0-.31-.27-4.67,3.18-6.79a8.41,8.41,0,0,1,6.12-.8c3.37,1,3.74,3.76,8.24,5.73a16,16,0,0,0,2.92.94"/>
      <path class="cls-14" d="M533.94,67.09a9,9,0,0,1-1.67,2.77,10.92,10.92,0,0,1-3.55,2.65"/>
      <path class="cls-14" d="M530.43,66.36a4.28,4.28,0,0,1-.89,2.48,5.5,5.5,0,0,1-3.22,1.79"/>
      <path class="cls-14" d="M527.4,66.36a3.56,3.56,0,0,1-.93,1.92,4.59,4.59,0,0,1-2.14,1.26"/>
    </g>
  </g>
  <ellipse class="cls-26" cx="340.32" cy="183.79" rx="15.71" ry="13.25"/>
  <ellipse class="cls-26" cx="350.41" cy="201.43" rx="15.71" ry="13.25"/>
  <ellipse class="cls-26" cx="356.03" cy="168.91" rx="15.71" ry="13.25"/>
  <ellipse class="cls-26" cx="377.14" cy="178.63" rx="15.71" ry="13.25"/>
  <ellipse class="cls-26" cx="374.73" cy="199.47" rx="15.71" ry="13.25"/>
  <ellipse class="cls-27" cx="361.43" cy="186.22" rx="7.86" ry="6.62"/>
  <ellipse class="cls-3" cx="54.58" cy="180.77" rx="15.71" ry="13.25"/>
  <ellipse class="cls-3" cx="64.67" cy="198.42" rx="15.71" ry="13.25"/>
  <ellipse class="cls-3" cx="70.29" cy="165.9" rx="15.71" ry="13.25"/>
  <ellipse class="cls-3" cx="91.4" cy="175.62" rx="15.71" ry="13.25"/>
  <ellipse class="cls-3" cx="88.99" cy="196.46" rx="15.71" ry="13.25"/>
  <ellipse class="cls-27" cx="75.69" cy="183.21" rx="7.86" ry="6.62"/>
  <ellipse class="cls-28" cx="194.57" cy="183.79" rx="15.71" ry="13.25"/>
  <ellipse class="cls-28" cx="204.65" cy="201.43" rx="15.71" ry="13.25"/>
  <ellipse class="cls-28" cx="210.28" cy="168.91" rx="15.71" ry="13.25"/>
  <ellipse class="cls-28" cx="231.39" cy="178.63" rx="15.71" ry="13.25"/>
  <ellipse class="cls-28" cx="228.97" cy="199.47" rx="15.71" ry="13.25"/>
  <ellipse class="cls-27" cx="215.67" cy="186.22" rx="7.86" ry="6.62"/>
  <ellipse class="cls-29" cx="480.59" cy="180.77" rx="15.71" ry="13.25"/>
  <ellipse class="cls-29" cx="490.67" cy="198.42" rx="15.71" ry="13.25"/>
  <ellipse class="cls-29" cx="496.3" cy="165.9" rx="15.71" ry="13.25"/>
  <ellipse class="cls-29" cx="517.4" cy="175.62" rx="15.71" ry="13.25"/>
  <ellipse class="cls-29" cx="514.99" cy="196.46" rx="15.71" ry="13.25"/>
  <ellipse class="cls-27" cx="501.69" cy="183.21" rx="7.86" ry="6.62"/>
</svg>
